<svg width="177" height="112" viewBox="0 0 177 112" fill="none" xmlns="http://www.w3.org/2000/svg">
<path fill-rule="evenodd" clip-rule="evenodd" d="M30.08 79.717V102.831C30.08 107.741 33.9393 111.721 38.7003 111.721H168.006C172.766 111.721 176.626 107.741 176.626 102.831V31.7125C176.626 26.8032 172.766 22.8228 168.006 22.8228H138.457V31.7125H155.08C155.082 33.4581 155.417 35.1858 156.064 36.7984C156.714 38.4159 157.667 39.8863 158.867 41.1242C160.068 42.3625 161.494 43.3448 163.062 44.0151C164.63 44.6845 166.309 45.0295 168.006 45.0299V89.4966C166.333 89.5064 164.678 89.8513 163.133 90.5114C161.564 91.1817 160.138 92.1636 158.938 93.4019C157.737 94.6403 156.785 96.1102 156.135 97.7281C155.485 99.3461 155.15 101.08 155.15 102.831H51.6128C51.5921 101.137 51.2585 99.4616 50.6296 97.8953C49.9796 96.2773 49.0271 94.8074 47.8263 93.569C46.6259 92.3307 45.2005 91.3484 43.6316 90.6785C42.0679 90.0105 40.3925 89.6655 38.7003 89.6633V79.717H30.08Z" fill="#07AA18"/>
<path fill-rule="evenodd" clip-rule="evenodd" d="M73.273 53.5034C78.034 53.5034 81.8933 49.523 81.8933 44.6136C81.8933 39.7037 78.034 35.7238 73.273 35.7238C68.5124 35.7238 64.6526 39.7037 64.6526 44.6136C64.6526 49.523 68.5124 53.5034 73.273 53.5034ZM73.273 62.3931C82.795 62.3931 90.5137 54.4328 90.5137 44.6136C90.5137 34.7939 82.795 26.834 73.273 26.834C63.7513 26.834 56.0322 34.7939 56.0322 44.6136C56.0322 54.4328 63.7513 62.3931 73.273 62.3931Z" fill="#07AA18"/>
<path fill-rule="evenodd" clip-rule="evenodd" d="M8.62036 0.164551C3.85947 0.164551 0 4.14451 0 9.05434V80.1727C0 85.0821 3.85947 89.0625 8.62036 89.0625H137.926C142.687 89.0625 146.546 85.0821 146.546 80.1727V9.05434C146.546 4.14451 142.687 0.164551 137.926 0.164551H8.62036ZM21.543 9.05434H125C125.002 10.7994 125.337 12.5271 125.984 14.1397C126.634 15.7577 127.586 17.2276 128.787 18.466C129.988 19.7043 131.413 20.6862 132.982 21.3565C134.55 22.0259 136.229 22.3708 137.926 22.3717V66.838C136.253 66.8482 134.598 67.1927 133.053 67.8528C131.484 68.523 130.058 69.5054 128.858 70.7437C127.657 71.9816 126.705 73.4515 126.055 75.0695C125.405 76.6874 125.071 78.4214 125.071 80.1727H21.5328C21.5122 78.4783 21.1787 76.803 20.5496 75.2366C19.8998 73.6187 18.9473 72.1487 17.7466 70.9104C16.5459 69.6725 15.1204 68.6902 13.5516 68.0199C11.9881 67.3523 10.3126 67.0073 8.62036 67.0051V22.389C10.3157 22.3877 11.9944 22.0428 13.5608 21.3738C15.1296 20.7035 16.555 19.7216 17.7557 18.4833C18.9565 17.245 19.9089 15.775 20.5587 14.1571C21.2085 12.5391 21.543 10.8052 21.543 9.05434Z" fill="#07AA18"/>
</svg>
