<svg width="87" height="95" viewBox="0 0 87 95" fill="none" xmlns="http://www.w3.org/2000/svg">
<path d="M85.9887 38.1144C85.4483 32.9187 72.6374 38.1144 72.6374 38.1144L71.8825 45.5072C71.6029 45.3327 71.3191 45.1628 71.0205 45.0181L67.7846 29.6011C66.5988 22.2611 61.5253 16.8543 54.1306 17.1321H35.1297C35.014 17.993 34.829 18.8264 34.5998 19.6415H55.4131C59.7297 19.6415 63.6846 22.6744 64.7654 27.6818L68.2409 42.9036C68.0222 42.8967 67.8057 42.8738 67.5849 42.8738H27.2871L27.2976 57.7122H52.2614V65.3231H27.3018L27.3102 77.7899H53.9645V85.6855C53.9645 88.8929 57.5998 91.4988 62.0804 91.4988C66.561 91.4988 70.19 88.8952 70.19 85.6855V76.8761C74.0188 75.2966 76.6848 71.8412 76.6848 67.8211V53.6944C76.6848 50.5719 75.07 47.7916 72.5701 45.9664L85.9887 45.1743C85.9887 45.1743 86.5269 43.3054 85.9887 38.1144ZM70.6168 65.0752H55.9703V57.4711H70.6168V65.0752Z" fill="#07AA18"/>
<path d="M32.2471 14.8958C32.2344 8.51781 29.0596 2.96172 24.3309 0V13.7594L16.5072 18.691L8.67729 13.7433V0C3.95703 2.96172 0.775842 8.51781 0.771637 14.8958C0.771637 21.5838 4.28292 27.3787 9.40057 30.2233V30.2968V86.8886C9.40057 89.1294 10.2269 91.1567 11.5725 92.6283C12.9161 94.0977 14.7705 94.9908 16.8268 95C20.9142 95 24.2363 91.3771 24.251 86.8909L24.2195 29.8629C29.0112 26.9195 32.2408 21.3129 32.2471 14.8958ZM18.4626 90.4794C17.3567 91.6916 15.5569 91.6916 14.4425 90.4771C13.345 89.274 13.3471 87.3179 14.453 86.1057C15.5653 84.898 17.3588 84.898 18.4563 86.0965C19.5686 87.311 19.5707 89.2694 18.4626 90.4794Z" fill="#07AA18"/>
</svg>
