<svg width="94" height="83" viewBox="0 0 94 83" fill="none" xmlns="http://www.w3.org/2000/svg">
<path d="M15.5717 9.22222C18.4585 9.22222 20.7985 7.15776 20.7985 4.61111C20.7985 2.06446 18.4585 0 15.5717 0C13.637 0 11.9479 0.927294 11.0442 2.30556H10.3449C6.01482 2.30556 2.50462 5.40226 2.50462 9.22222V29.9722C1.06133 29.9722 -0.121052 31.0067 0.00993201 32.2748C0.617524 38.1567 3.53869 43.6949 8.31125 47.9053C11.811 50.9927 16.12 53.2018 20.7985 54.3719V59.9444C20.7985 62.9564 22.9807 65.5186 26.0264 66.4678C26.1377 75.6151 34.5777 83 44.9726 83C55.4369 83 63.9198 75.5164 63.9198 66.2847V57.0625C63.9198 52.2875 68.3075 48.4167 73.7201 48.4167C79.1328 48.4167 83.5204 52.2875 83.5204 57.0625V62.6436C80.4753 63.593 78.2936 66.1552 78.2936 69.1667C78.2936 72.9867 81.8037 76.0833 86.1338 76.0833C90.464 76.0833 93.9741 72.9867 93.9741 69.1667C93.9741 66.1552 91.7924 63.593 88.7472 62.6436V57.0625C88.7472 49.741 82.0193 43.8056 73.7201 43.8056C65.421 43.8056 58.693 49.741 58.693 57.0625V66.2847C58.693 72.9697 52.5502 78.3889 44.9726 78.3889C37.464 78.3889 31.3643 73.0679 31.2537 66.4671C34.2981 65.5172 36.479 62.9555 36.479 59.9444V54.3719C41.1575 53.2018 45.4668 50.9927 48.9664 47.9053C53.739 43.6949 56.66 38.1567 57.2676 32.2748C57.3988 31.0067 56.2163 29.9722 54.7729 29.9722V9.22222C54.7729 5.40226 51.2628 2.30556 46.9326 2.30556H46.2333C45.3296 0.927294 43.6405 0 41.7058 0C38.819 0 36.479 2.06446 36.479 4.61111C36.479 7.15776 38.819 9.22222 41.7058 9.22222C43.6405 9.22222 45.3296 8.29493 46.2333 6.91667H46.9326C48.376 6.91667 49.546 7.94891 49.546 9.22222V29.9722H50.0936C48.6502 29.9722 47.4987 31.0095 47.2993 32.2706C46.7361 35.8297 44.8751 39.1553 41.9617 41.7257C38.4281 44.8428 33.6359 46.5941 28.6387 46.5941C23.6419 46.5941 18.8494 44.8428 15.3161 41.7257C12.4024 39.1553 10.5416 35.8297 9.97846 32.2706C9.7789 31.0095 8.62748 29.9722 7.18412 29.9722H7.73144V9.22222C7.73144 7.94891 8.90152 6.91667 10.3449 6.91667H11.0442C11.9479 8.29493 13.637 9.22222 15.5717 9.22222Z" fill="#07AA18"/>
</svg>
