<svg width="156" height="185" viewBox="0 0 156 185" fill="none" xmlns="http://www.w3.org/2000/svg">
<path d="M92.0434 48.5129V50.961C92.0434 72.6428 76.7793 90.4776 57.9928 90.4776C39.2063 90.4776 23.9423 72.6425 23.9423 50.961C23.9423 50.2616 23.9423 49.5622 23.9423 48.5129" stroke="#07AA18" stroke-width="8" stroke-miterlimit="10"/>
<path d="M17.2538 32.6217C19.5242 3.20632 44.499 2.86823 56.9866 4.55868C58.1217 4.89677 61.5276 4.55868 62.6628 4.55868C85.3673 1.85396 96.7193 24.8452 96.7193 34.9883C96.7193 38.7077 97.6791 47.7874 92.0029 52.8592C92.0029 52.8592 78.1771 38.7077 77.4203 30.5928C77.4203 30.5928 34.2817 45.1314 31.2546 32.6213C31.2546 32.6213 28.2275 42.7644 25.5783 45.4695C25.5783 45.4695 24.1789 53.2459 24.1789 55.6126C24.1797 55.6133 16.1187 45.4699 17.2538 32.6217V32.6217Z" stroke="#07AA18" stroke-width="8" stroke-linecap="round" stroke-linejoin="round"/>
<path d="M72.0101 52.8143C72.0101 53.2646 71.8556 53.5234 71.6676 53.6971C71.4582 53.8906 71.0321 54.1272 70.3125 54.1272C69.5928 54.1272 69.1668 53.8906 68.9574 53.6971C68.7694 53.5234 68.6149 53.2646 68.6149 52.8143C68.6149 52.2867 68.8347 51.709 69.2183 51.2821C69.5804 50.879 69.9657 50.7319 70.3125 50.7319C70.6593 50.7319 71.0445 50.879 71.4067 51.2821C71.7902 51.709 72.0101 52.2867 72.0101 52.8143Z" stroke="#07AA18" stroke-width="8"/>
<path d="M46.3708 52.8143C46.3708 53.2646 46.2163 53.5234 46.0283 53.6971C45.8189 53.8906 45.3928 54.1272 44.6732 54.1272C43.9535 54.1272 43.5275 53.8906 43.3181 53.6971C43.1301 53.5234 42.9756 53.2646 42.9756 52.8143C42.9756 52.2867 43.1954 51.709 43.579 51.2821C43.9411 50.879 44.3264 50.7319 44.6732 50.7319C45.02 50.7319 45.4053 50.879 45.7674 51.2821C46.151 51.709 46.3708 52.2867 46.3708 52.8143Z" stroke="#07AA18" stroke-width="8"/>
<path d="M50.046 71.1953C54.9655 73.5619 61.0197 73.5619 65.9391 71.1953" stroke="#07AA18" stroke-width="8" stroke-linecap="round" stroke-linejoin="round"/>
<path d="M70.7631 180.217V173.625C70.7631 164.244 81.4115 156.638 92.06 156.638C104.723 166.019 117.386 166.019 130.337 156.638C140.985 156.638 151.633 164.244 151.633 173.625V180.217" stroke="#07AA18" stroke-width="8" stroke-linecap="round" stroke-linejoin="round"/>
<path d="M103.347 126.883C103.347 127.334 103.192 127.593 103.004 127.766C102.795 127.96 102.369 128.196 101.649 128.196C100.93 128.196 100.504 127.96 100.294 127.766C100.106 127.593 99.9517 127.334 99.9517 126.883C99.9517 126.356 100.172 125.778 100.555 125.351C100.917 124.948 101.302 124.801 101.649 124.801C101.996 124.801 102.381 124.948 102.743 125.351C103.127 125.778 103.347 126.356 103.347 126.883Z" stroke="#07AA18" stroke-width="8"/>
<path d="M123.289 126.883C123.289 127.334 123.134 127.593 122.946 127.766C122.737 127.96 122.311 128.196 121.591 128.196C120.872 128.196 120.445 127.96 120.236 127.766C120.048 127.593 119.894 127.334 119.894 126.883C119.894 126.356 120.113 125.778 120.497 125.351C120.859 124.948 121.244 124.801 121.591 124.801C121.938 124.801 122.323 124.948 122.685 125.351C123.069 125.778 123.289 126.356 123.289 126.883Z" stroke="#07AA18" stroke-width="8"/>
<path d="M105.511 138.329C108.809 140.772 113.587 140.772 116.885 138.329" stroke="#07AA18" stroke-width="8" stroke-linecap="round" stroke-linejoin="round"/>
<path d="M139.073 123.431C139.106 123.967 139.123 124.507 139.124 125.051C139.735 139.241 127.385 151.198 111.506 151.791C95.6273 151.198 83.2772 139.241 83.8888 125.051C83.8888 124.689 83.8961 124.329 83.911 123.971" stroke="#07AA18" stroke-width="8" stroke-miterlimit="10"/>
<path d="M101.134 112.034C103.131 124.824 120.232 108.723 120.232 108.723C122.569 114.708 139.068 123.431 139.068 123.431C143.462 119.797 141.306 112.583 140.651 110.069C138.478 99.7524 127.544 92.8316 115.931 94.4216C114.469 94.5266 112.999 94.5266 111.537 94.4216C101.871 93.1404 85.8713 93.8577 81.2319 112.08C78.9688 120.973 83.8878 123.43 83.8878 123.43C83.8878 123.43 99.9086 104.191 101.134 112.034Z" stroke="#07AA18" stroke-width="8" stroke-linecap="round" stroke-linejoin="round"/>
<path d="M4.78979 179.456V122.24C4.78979 109.73 18.8007 99.5869 32.8117 99.5869C44.228 108.159 55.6439 110.857 67.1819 107.683" stroke="#07AA18" stroke-width="8" stroke-miterlimit="10" stroke-linecap="round" stroke-linejoin="round"/>
</svg>
