<svg width="155" height="163" viewBox="0 0 155 163" fill="none" xmlns="http://www.w3.org/2000/svg">
<path d="M59.196 96.0773C51.3704 89.1039 41.3752 85.4623 30.9927 85.2299V108.474L0 77.4817L30.9927 46.489V69.7335C43.9321 69.7335 56.5616 74.15 66.8667 82.0531C63.6899 86.3921 61.133 91.1185 59.196 96.0773ZM123.971 108.474V85.2299C120.097 85.2299 89.1039 86.4696 85.6173 117.772C97.7044 122.034 104.058 135.361 99.7964 147.448C95.5349 159.535 82.2081 165.888 70.1209 161.627C58.1113 157.288 51.6803 144.038 55.9418 131.951C58.1113 125.288 63.535 120.097 70.1209 117.772C72.3679 89.9562 96.0773 68.8037 123.971 69.7335V46.489L154.963 77.4817L123.971 108.474ZM85.2299 139.467C85.2299 137.412 84.4135 135.441 82.9605 133.988C81.5074 132.535 79.5366 131.719 77.4817 131.719C75.4267 131.719 73.456 132.535 72.0029 133.988C70.5498 135.441 69.7335 137.412 69.7335 139.467C69.7335 141.522 70.5498 143.493 72.0029 144.946C73.456 146.399 75.4267 147.215 77.4817 147.215C79.5366 147.215 81.5074 146.399 82.9605 144.946C84.4135 143.493 85.2299 141.522 85.2299 139.467ZM69.7335 78.4115C74.2274 73.2977 79.4187 68.8812 85.2299 65.3171V30.9927H108.474L77.4817 0L46.489 30.9927H69.7335V78.4115Z" fill="#07AA18"/>
</svg>
