<svg width="156" height="156" viewBox="0 0 156 156" fill="none" xmlns="http://www.w3.org/2000/svg">
<path d="M145.371 63.3465C145.371 56.3512 143.993 49.4244 141.316 42.9615C138.639 36.4987 134.715 30.6264 129.769 25.6799C124.822 20.7335 118.95 16.8097 112.487 14.1327C106.024 11.4557 99.0972 10.0779 92.1019 10.0779H53.361C41.802 10.0779 30.7164 14.6697 22.5429 22.8432C14.3694 31.0167 9.77759 42.1023 9.77759 53.6613V68.1891C9.77759 74.6108 12.3286 80.7695 16.8694 85.3103C21.4102 89.8512 27.5689 92.4022 33.9906 92.4022H39.3175C40.4339 97.8712 43.4055 102.787 47.7296 106.316C52.0536 109.846 57.4644 111.774 63.0462 111.773H69.729L89.0995 145.671L97.4772 140.828L78.1068 107.463C77.3275 105.892 76.1367 104.563 74.6613 103.616C73.1859 102.67 71.4812 102.141 69.729 102.087H63.0462C59.1932 102.087 55.498 100.557 52.7735 97.8323C50.049 95.1078 48.5184 91.4126 48.5184 87.5596C48.5184 83.7066 50.049 80.0113 52.7735 77.2868C55.498 74.5624 59.1932 73.0318 63.0462 73.0318H67.8889V63.3465H63.0462C57.4644 63.3454 52.0536 65.2729 47.7296 68.8027C43.4055 72.3325 40.4339 77.2479 39.3175 82.717H33.9906C30.1376 82.717 26.4424 81.1864 23.7179 78.4619C20.9934 75.7374 19.4628 72.0422 19.4628 68.1891V58.5039H29.148C33.001 58.5039 36.6962 56.9733 39.4207 54.2488C42.1452 51.5243 43.6758 47.8291 43.6758 43.9761V39.1335H33.9906V43.9761C33.9906 45.2605 33.4804 46.4922 32.5722 47.4004C31.6641 48.3085 30.4323 48.8187 29.148 48.8187H19.8502C21.0137 40.7577 25.0406 33.3851 31.1941 28.0497C37.3477 22.7142 45.2165 19.7726 53.361 19.7631H82.4167V29.4483C82.4167 30.7326 81.9065 31.9644 80.9983 32.8725C80.0901 33.7807 78.8584 34.2909 77.5741 34.2909H67.8889V43.9761H77.5741C81.4271 43.9761 85.1223 42.4455 87.8468 39.721C90.5713 36.9965 92.1019 33.3013 92.1019 29.4483V19.7631C100.209 19.7741 108.152 22.046 115.038 26.3234C121.925 30.6007 127.482 36.714 131.085 43.9761H126C122.147 43.9761 118.452 45.5067 115.727 48.2312C113.003 50.9557 111.472 54.6509 111.472 58.5039V63.3465H121.158V58.5039C121.158 57.2196 121.668 55.9879 122.576 55.0797C123.484 54.1715 124.716 53.6613 126 53.6613H134.572C135.314 56.8362 135.688 60.0861 135.685 63.3465V68.1891C135.685 74.6108 133.134 80.7695 128.593 85.3103C124.053 89.8512 117.894 92.4022 111.472 92.4022H96.9445V102.087H111.472C116.499 102.08 121.462 100.956 126 98.7944V102.087C126 105.94 124.47 109.636 121.745 112.36C119.021 115.085 115.325 116.615 111.472 116.615H106.63V126.3H111.472C117.894 126.3 124.053 123.749 128.593 119.209C133.134 114.668 135.685 108.509 135.685 102.087V91.8695C141.883 85.5441 145.359 77.0447 145.371 68.1891V63.3465Z" fill="#07AA18"/>
</svg>
