<svg width="138" height="129" viewBox="0 0 138 129" fill="none" xmlns="http://www.w3.org/2000/svg">
<path fill-rule="evenodd" clip-rule="evenodd" d="M26.2753 3.0426C27.0773 2.10501 28.0728 1.35227 29.1935 0.836183C30.3141 0.320093 31.5333 0.0528974 32.767 0.0529785H105.714C106.948 0.0528974 108.167 0.320093 109.287 0.836183C110.408 1.35227 111.404 2.10501 112.205 3.0426L134.491 29.0437C136.481 31.3657 137.574 34.3226 137.575 37.3805V39.5586C137.575 43.7866 136.254 47.9091 133.798 51.3499C131.341 54.7907 127.87 57.3779 123.871 58.7498C119.872 60.1218 115.544 60.2099 111.492 59.002C107.44 57.7941 103.867 55.3504 101.272 52.0125C99.3769 54.4535 96.9484 56.4284 94.1724 57.7861C91.3964 59.1438 88.3464 59.8482 85.2562 59.8453C82.1658 59.8488 79.1157 59.1447 76.3396 57.787C73.5635 56.4293 71.135 54.454 69.2404 52.0125C67.3458 54.454 64.9173 56.4293 62.1412 57.787C59.3651 59.1447 56.3149 59.8488 53.2246 59.8453C50.1342 59.8488 47.0841 59.1447 44.308 57.787C41.5318 56.4293 39.1034 54.454 37.2088 52.0125C34.6137 55.3504 31.0406 57.7941 26.9889 59.002C22.9371 60.2099 18.6092 60.1218 14.61 58.7498C10.6108 57.3779 7.14023 54.7907 4.68327 51.3499C2.22631 47.9091 0.905784 43.7866 0.90625 39.5586V37.3805C0.906358 34.3226 2.00008 31.3657 3.98983 29.0437L26.2838 3.03405L26.2753 3.0426ZM41.4796 39.5586C41.4796 42.6736 42.7171 45.661 44.9197 47.8636C47.1223 50.0662 50.1096 51.3036 53.2246 51.3036C56.3395 51.3036 59.3269 50.0662 61.5295 47.8636C63.7321 45.661 64.9695 42.6736 64.9695 39.5586C64.9695 38.4259 65.4195 37.3396 66.2204 36.5387C67.0214 35.7377 68.1077 35.2878 69.2404 35.2878C70.3731 35.2878 71.4594 35.7377 72.2604 36.5387C73.0613 37.3396 73.5113 38.4259 73.5113 39.5586C73.5113 42.6736 74.7487 45.661 76.9513 47.8636C79.1539 50.0662 82.1413 51.3036 85.2562 51.3036C88.3711 51.3036 91.3585 50.0662 93.5611 47.8636C95.7637 45.661 97.0011 42.6736 97.0011 39.5586C97.0011 38.4259 97.4511 37.3396 98.252 36.5387C99.053 35.7377 100.139 35.2878 101.272 35.2878C102.405 35.2878 103.491 35.7377 104.292 36.5387C105.093 37.3396 105.543 38.4259 105.543 39.5586C105.543 42.6736 106.78 45.661 108.983 47.8636C111.186 50.0662 114.173 51.3036 117.288 51.3036C120.403 51.3036 123.39 50.0662 125.593 47.8636C127.795 45.661 129.033 42.6736 129.033 39.5586V37.3805C129.033 36.3626 128.669 35.3781 128.008 34.6044L105.714 8.59474H32.767L10.473 34.6044C9.81145 35.3781 9.44794 36.3626 9.44802 37.3805V39.5586C9.44802 42.6736 10.6854 45.661 12.888 47.8636C15.0906 50.0662 18.078 51.3036 21.1929 51.3036C24.3079 51.3036 27.2953 50.0662 29.4979 47.8636C31.7005 45.661 32.9379 42.6736 32.9379 39.5586C32.9379 38.4259 33.3878 37.3396 34.1888 36.5387C34.9897 35.7377 36.076 35.2878 37.2088 35.2878C38.3415 35.2878 39.4278 35.7377 40.2287 36.5387C41.0297 37.3396 41.4796 38.4259 41.4796 39.5586ZM13.7189 64.1162C14.8516 64.1162 15.9379 64.5662 16.7389 65.3671C17.5398 66.1681 17.9898 67.2544 17.9898 68.3871V119.638H26.5316V76.9289C26.5316 74.6635 27.4315 72.4908 29.0334 70.8889C30.6353 69.287 32.8079 68.3871 35.0733 68.3871H60.6986C62.964 68.3871 65.1367 69.287 66.7386 70.8889C68.3405 72.4908 69.2404 74.6635 69.2404 76.9289V119.638H120.491V68.3871C120.491 67.2544 120.941 66.1681 121.742 65.3671C122.543 64.5662 123.629 64.1162 124.762 64.1162C125.895 64.1162 126.981 64.5662 127.782 65.3671C128.583 66.1681 129.033 67.2544 129.033 68.3871V119.638H133.304C134.436 119.638 135.523 120.088 136.324 120.889C137.125 121.69 137.575 122.776 137.575 123.909C137.575 125.041 137.125 126.128 136.324 126.929C135.523 127.73 134.436 128.179 133.304 128.179H5.17713C4.04442 128.179 2.95811 127.73 2.15716 126.929C1.35622 126.128 0.90625 125.041 0.90625 123.909C0.90625 122.776 1.35622 121.69 2.15716 120.889C2.95811 120.088 4.04442 119.638 5.17713 119.638H9.44802V68.3871C9.44802 67.2544 9.89798 66.1681 10.6989 65.3671C11.4999 64.5662 12.5862 64.1162 13.7189 64.1162ZM35.0733 119.638H60.6986V76.9289H35.0733V119.638ZM77.7822 76.9289C77.7822 74.6635 78.6821 72.4908 80.284 70.8889C81.8859 69.287 84.0585 68.3871 86.3239 68.3871H103.407C105.673 68.3871 107.846 69.287 109.447 70.8889C111.049 72.4908 111.949 74.6635 111.949 76.9289V102.554C111.949 104.82 111.049 106.992 109.447 108.594C107.846 110.196 105.673 111.096 103.407 111.096H86.3239C84.0585 111.096 81.8859 110.196 80.284 108.594C78.6821 106.992 77.7822 104.82 77.7822 102.554V76.9289ZM103.407 76.9289H86.3239V102.554H103.407V76.9289Z" fill="#07AA18"/>
</svg>
