<svg width="75" height="75" viewBox="0 0 75 75" fill="none" xmlns="http://www.w3.org/2000/svg">
<path d="M65.625 31.25C65.625 53.125 37.5 71.875 37.5 71.875C37.5 71.875 9.375 53.125 9.375 31.25C9.375 23.7908 12.3382 16.6371 17.6126 11.3626C22.8871 6.08816 30.0408 3.125 37.5 3.125C44.9592 3.125 52.1129 6.08816 57.3874 11.3626C62.6618 16.6371 65.625 23.7908 65.625 31.25Z" stroke="white" stroke-width="2" stroke-linecap="round" stroke-linejoin="round"/>
<path d="M37.5 40.625C42.6777 40.625 46.875 36.4277 46.875 31.25C46.875 26.0723 42.6777 21.875 37.5 21.875C32.3223 21.875 28.125 26.0723 28.125 31.25C28.125 36.4277 32.3223 40.625 37.5 40.625Z" stroke="white" stroke-width="2" stroke-linecap="round" stroke-linejoin="round"/>
</svg>
