<svg width="53" height="53" viewBox="0 0 53 53" fill="none" xmlns="http://www.w3.org/2000/svg">
<path d="M51.3935 39.15V46.6236C51.3963 47.3174 51.2544 48.0041 50.9768 48.6398C50.6992 49.2755 50.2921 49.8462 49.7816 50.3152C49.271 50.7842 48.6683 51.1413 48.0119 51.3636C47.3556 51.5859 46.6601 51.6684 45.9701 51.606C38.3147 50.773 30.9613 48.1535 24.5005 43.958C18.4895 40.1332 13.3933 35.03 9.57372 29.0109C5.3693 22.5119 2.75281 15.1126 1.93621 7.41235C1.87404 6.72345 1.9558 6.02914 2.17628 5.37362C2.39676 4.7181 2.75114 4.11574 3.21684 3.60487C3.68254 3.09401 4.24937 2.68585 4.88123 2.40637C5.5131 2.12689 6.19615 1.98222 6.88691 1.98156H14.3503C15.5576 1.96967 16.7281 2.39779 17.6435 3.18613C18.559 3.97448 19.1569 5.06926 19.3259 6.2664C19.6409 8.6581 20.2251 11.0064 21.0673 13.2666C21.402 14.1583 21.4745 15.1273 21.2761 16.0589C21.0776 16.9906 20.6167 17.8457 19.9478 18.523L16.7883 21.6868C20.3298 27.9236 25.4868 33.0876 31.7151 36.6339L34.8745 33.4701C35.551 32.8003 36.4049 32.3388 37.3353 32.1401C38.2656 31.9414 39.2333 32.0139 40.1238 32.3491C42.3809 33.1925 44.726 33.7775 47.1145 34.0929C48.323 34.2637 49.4266 34.8732 50.2156 35.8056C51.0045 36.738 51.4237 37.9283 51.3935 39.15Z" stroke="white" stroke-width="2.5" stroke-linecap="round" stroke-linejoin="round"/>
</svg>
