<svg width="290" height="53" viewBox="0 0 290 53" fill="none" xmlns="http://www.w3.org/2000/svg">
<g clip-path="url(#clip0_7_223)">
<path d="M169.924 21.2576C169.743 20.6997 169.261 20.293 168.68 20.2088L153.272 17.9689L146.382 4.00748C146.123 3.48142 145.587 3.14832 145 3.14832C144.414 3.14832 143.878 3.48142 143.618 4.00748L136.728 17.9689L121.32 20.2088C120.739 20.2932 120.257 20.6999 120.075 21.2576C119.894 21.8155 120.045 22.4279 120.465 22.8374L131.615 33.7052L128.983 49.0498C128.884 49.628 129.122 50.2124 129.596 50.557C130.071 50.9019 130.7 50.9475 131.219 50.6744L145 43.4299L158.781 50.6744C159.007 50.793 159.253 50.8513 159.498 50.8513C159.5 50.8513 159.501 50.8513 159.503 50.8513C159.503 50.8513 159.503 50.8513 159.503 50.8513C160.354 50.8513 161.044 50.1613 161.044 49.3101C161.044 49.1809 161.028 49.0553 160.998 48.9353L158.386 33.7048L169.535 22.8372C169.955 22.4281 170.106 21.8155 169.924 21.2576ZM155.654 32.0635C155.291 32.4175 155.125 32.9278 155.211 33.4277L157.452 46.4932L145.718 40.3247C145.269 40.0886 144.732 40.0886 144.284 40.3247L132.549 46.4932L134.79 33.4277C134.876 32.9278 134.71 32.4177 134.347 32.0635L124.854 22.8099L137.974 20.9027C138.476 20.8298 138.91 20.5146 139.134 20.0596L145.001 8.17201L150.868 20.0596C151.092 20.5143 151.526 20.8298 152.028 20.9027L165.147 22.8099L155.654 32.0635Z" fill="#FFD600"/>
</g>
<g clip-path="url(#clip1_7_223)">
<path d="M289.924 22.2576C289.743 21.6997 289.261 21.293 288.68 21.2088L273.272 18.9689L266.382 5.00748C266.123 4.48142 265.587 4.14832 265 4.14832C264.414 4.14832 263.878 4.48142 263.618 5.00748L256.728 18.9689L241.32 21.2088C240.739 21.2932 240.257 21.6999 240.075 22.2576C239.894 22.8155 240.045 23.4279 240.465 23.8374L251.615 34.7052L248.983 50.0498C248.884 50.628 249.122 51.2124 249.596 51.557C250.071 51.9019 250.7 51.9475 251.219 51.6744L265 44.4299L278.781 51.6744C279.007 51.793 279.253 51.8513 279.498 51.8513C279.5 51.8513 279.501 51.8513 279.503 51.8513C279.503 51.8513 279.503 51.8513 279.503 51.8513C280.354 51.8513 281.044 51.1613 281.044 50.3101C281.044 50.1809 281.028 50.0553 280.998 49.9353L278.386 34.7048L289.535 23.8372C289.955 23.4281 290.106 22.8155 289.924 22.2576ZM275.654 33.0635C275.291 33.4175 275.125 33.9278 275.211 34.4277L277.452 47.4932L265.718 41.3247C265.269 41.0886 264.732 41.0886 264.284 41.3247L252.549 47.4932L254.79 34.4277C254.876 33.9278 254.71 33.4177 254.347 33.0635L244.854 23.8099L257.974 21.9027C258.476 21.8298 258.91 21.5146 259.134 21.0596L265.001 9.17201L270.868 21.0596C271.092 21.5143 271.526 21.8298 272.028 21.9027L285.147 23.8099L275.654 33.0635Z" fill="#FFD600"/>
</g>
<g clip-path="url(#clip2_7_223)">
<path d="M289.924 22.2576C289.743 21.6997 289.261 21.293 288.68 21.2088L273.272 18.9689L266.382 5.00748C266.123 4.48142 265.587 4.14832 265 4.14832C264.414 4.14832 263.878 4.48142 263.618 5.00748L256.728 18.9689L241.32 21.2088C240.739 21.2932 240.257 21.6999 240.075 22.2576C239.894 22.8155 240.045 23.4279 240.465 23.8374L251.615 34.7052L248.983 50.0498C248.884 50.628 249.122 51.2124 249.596 51.557C250.071 51.9019 250.7 51.9475 251.219 51.6744L265 44.4299L278.781 51.6744C279.007 51.793 279.253 51.8513 279.498 51.8513C279.5 51.8513 279.501 51.8513 279.503 51.8513C279.503 51.8513 279.503 51.8513 279.503 51.8513C280.354 51.8513 281.044 51.1613 281.044 50.3101C281.044 50.1809 281.028 50.0553 280.998 49.9353L278.386 34.7048L289.535 23.8372C289.955 23.4281 290.106 22.8155 289.924 22.2576ZM275.654 33.0635C275.291 33.4175 275.125 33.9278 275.211 34.4277L277.452 47.4932L265.718 41.3247C265.269 41.0886 264.732 41.0886 264.284 41.3247L252.549 47.4932L254.79 34.4277C254.876 33.9278 254.71 33.4177 254.347 33.0635L244.854 23.8099L257.974 21.9027C258.476 21.8298 258.91 21.5146 259.134 21.0596L265.001 9.17201L270.868 21.0596C271.092 21.5143 271.526 21.8298 272.028 21.9027L285.147 23.8099L275.654 33.0635Z" fill="white"/>
</g>
<g clip-path="url(#clip3_7_223)">
<path d="M229.924 21.2576C229.743 20.6997 229.261 20.293 228.68 20.2088L213.272 17.9689L206.382 4.00748C206.123 3.48142 205.587 3.14832 205 3.14832C204.414 3.14832 203.878 3.48142 203.618 4.00748L196.728 17.9689L181.32 20.2088C180.739 20.2932 180.257 20.6999 180.075 21.2576C179.894 21.8155 180.045 22.4279 180.465 22.8374L191.615 33.7052L188.983 49.0498C188.884 49.628 189.122 50.2124 189.596 50.557C190.071 50.9019 190.7 50.9475 191.219 50.6744L205 43.4299L218.781 50.6744C219.007 50.793 219.253 50.8513 219.498 50.8513C219.5 50.8513 219.501 50.8513 219.503 50.8513C219.503 50.8513 219.503 50.8513 219.503 50.8513C220.354 50.8513 221.044 50.1613 221.044 49.3101C221.044 49.1809 221.028 49.0553 220.998 48.9353L218.386 33.7048L229.535 22.8372C229.955 22.4281 230.106 21.8155 229.924 21.2576ZM215.654 32.0635C215.291 32.4175 215.125 32.9278 215.211 33.4277L217.452 46.4932L205.718 40.3247C205.269 40.0886 204.732 40.0886 204.284 40.3247L192.549 46.4932L194.79 33.4277C194.876 32.9278 194.71 32.4177 194.347 32.0635L184.854 22.8099L197.974 20.9027C198.476 20.8298 198.91 20.5146 199.134 20.0596L205.001 8.17201L210.868 20.0596C211.092 20.5143 211.526 20.8298 212.028 20.9027L225.147 22.8099L215.654 32.0635Z" fill="#FFD600"/>
</g>
<g clip-path="url(#clip4_7_223)">
<path d="M49.9244 19.2576C49.7431 18.6997 49.2608 18.293 48.6803 18.2088L33.2724 15.9689L26.3823 2.00748C26.1225 1.48142 25.5868 1.14832 25.0003 1.14832C24.4136 1.14832 23.8779 1.48142 23.6182 2.00748L16.728 15.9689L1.31968 18.2088C0.738954 18.2932 0.256662 18.6999 0.0754168 19.2576C-0.105828 19.8155 0.0452094 20.4279 0.465443 20.8374L11.6149 31.7052L8.98314 47.0498C8.88409 47.628 9.12164 48.2124 9.59612 48.557C10.0706 48.9019 10.6998 48.9475 11.2191 48.6744L25.0003 41.4299L38.7813 48.6744C39.0067 48.793 39.2531 48.8513 39.4983 48.8513C39.4997 48.8513 39.5011 48.8513 39.5026 48.8513C39.5026 48.8513 39.5026 48.8513 39.5028 48.8513C40.3539 48.8513 41.044 48.1613 41.044 47.3101C41.044 47.1809 41.028 47.0553 40.9982 46.9353L38.3857 31.7048L49.5346 20.8372C49.9546 20.4281 50.1058 19.8155 49.9244 19.2576ZM35.6539 30.0635C35.2906 30.4175 35.1248 30.9278 35.2107 31.4277L37.4518 44.4932L25.7177 38.3247C25.2687 38.0886 24.7323 38.0886 24.2835 38.3247L12.5493 44.4932L14.7904 31.4277C14.8763 30.9278 14.7104 30.4177 14.3471 30.0635L4.85355 20.8099L17.9737 18.9027C18.4757 18.8298 18.9097 18.5146 19.1341 18.0596L25.0009 6.17201L30.8678 18.0596C31.0922 18.5143 31.5262 18.8298 32.028 18.9027L45.1475 20.8099L35.6539 30.0635Z" fill="#FFD600"/>
</g>
<g clip-path="url(#clip5_7_223)">
<path d="M109.924 20.2576C109.743 19.6997 109.261 19.293 108.68 19.2088L93.2724 16.9689L86.3823 3.00748C86.1225 2.48142 85.5868 2.14832 85.0003 2.14832C84.4136 2.14832 83.8779 2.48142 83.6182 3.00748L76.728 16.9689L61.3197 19.2088C60.739 19.2932 60.2567 19.6999 60.0754 20.2576C59.8942 20.8155 60.0452 21.4279 60.4654 21.8374L71.6149 32.7052L68.9831 48.0498C68.8841 48.628 69.1216 49.2124 69.5961 49.557C70.0706 49.9019 70.6998 49.9475 71.2191 49.6744L85.0003 42.4299L98.7813 49.6744C99.0067 49.793 99.2531 49.8513 99.4983 49.8513C99.4997 49.8513 99.5011 49.8513 99.5026 49.8513C99.5026 49.8513 99.5026 49.8513 99.5028 49.8513C100.354 49.8513 101.044 49.1613 101.044 48.3101C101.044 48.1809 101.028 48.0553 100.998 47.9353L98.3857 32.7048L109.535 21.8372C109.955 21.4281 110.106 20.8155 109.924 20.2576ZM95.6539 31.0635C95.2906 31.4175 95.1248 31.9278 95.2107 32.4277L97.4518 45.4932L85.7177 39.3247C85.2687 39.0886 84.7323 39.0886 84.2835 39.3247L72.5493 45.4932L74.7904 32.4277C74.8763 31.9278 74.7104 31.4177 74.3471 31.0635L64.8535 21.8099L77.9737 19.9027C78.4757 19.8298 78.9097 19.5146 79.1341 19.0596L85.0009 7.17201L90.8678 19.0596C91.0922 19.5143 91.5262 19.8298 92.028 19.9027L105.147 21.8099L95.6539 31.0635Z" fill="#FFD600"/>
</g>
<defs>
<clipPath id="clip0_7_223">
<rect width="50" height="50" fill="white" transform="translate(120 2)"/>
</clipPath>
<clipPath id="clip1_7_223">
<rect width="50" height="50" fill="white" transform="translate(240 3)"/>
</clipPath>
<clipPath id="clip2_7_223">
<rect width="25" height="50" fill="white" transform="translate(265 3)"/>
</clipPath>
<clipPath id="clip3_7_223">
<rect width="50" height="50" fill="white" transform="translate(180 2)"/>
</clipPath>
<clipPath id="clip4_7_223">
<rect width="50" height="50" fill="white"/>
</clipPath>
<clipPath id="clip5_7_223">
<rect width="50" height="50" fill="white" transform="translate(60 1)"/>
</clipPath>
</defs>
</svg>
