<svg width="124" height="124" viewBox="0 0 124 124" fill="none" xmlns="http://www.w3.org/2000/svg">
<g clip-path="url(#clip0_21_330)">
<path d="M100.965 47.7139C106.231 42.4247 107.923 34.9215 106.046 28.143L94.6605 39.5284L83.4194 36.4488L80.3474 25.1886L91.7195 13.8165C84.9487 11.9471 77.4397 13.6332 72.1582 18.9069C66.6241 24.441 65.0426 32.4497 67.3726 39.4874L67.3118 39.5482L20.4837 86.3763C18.6295 88.2305 17.7082 90.6642 17.722 93.1136C17.7358 95.5591 18.694 97.9953 20.5684 99.8849C24.3092 103.626 30.3475 103.668 34.0732 99.9696L81.2334 52.7516C88.0544 54.7016 95.6495 53.018 100.965 47.7139ZM25.8062 97.6413C23.7909 97.6322 22.1437 95.985 22.1288 93.9601C22.1198 91.9602 23.7403 90.3435 25.7556 90.3525C27.7729 90.3712 29.4143 92.0127 29.4271 94.0088C29.4401 96.0318 27.8215 97.6542 25.8062 97.6413Z" fill="#870000"/>
</g>
<defs>
<clipPath id="clip0_21_330">
<rect x="89.0957" width="48" height="126" rx="24" transform="rotate(45 89.0957 0)" fill="white"/>
</clipPath>
</defs>
</svg>
